<?xml version="1.0" encoding="utf-8"?><svg xmlns="http://www.w3.org/2000/svg" xmlns:xlink="http://www.w3.org/1999/xlink"><symbol viewBox="0 0 15 14" id="watch" xmlns="http://www.w3.org/2000/svg"><g clip-path="url(#aclip0)"><path d="M7.274.046C3.394.046.232 3.165.232 7c0 3.836 3.158 6.954 7.042 6.954 3.885 0 7.042-3.122 7.042-6.954S11.158.046 7.274.046zm0 12.853C3.981 12.9 1.3 10.252 1.3 7c0-3.252 2.681-5.9 5.974-5.9 3.294 0 5.974 2.648 5.974 5.9 0 3.252-2.68 5.9-5.974 5.9z"/><path d="M7.62 7.735V4.328H6.552V8.29l2.752 1.853.601-.872L7.62 7.735z"/></g><defs><clipPath id="aclip0"><path transform="matrix(1 0 0 -1 .14 14)" d="M0 0h14.177v14H0z"/></clipPath></defs></symbol></svg>